<?xml version="1.0" standalone="no"?>
<!DOCTYPE svg PUBLIC "-//W3C//DTD SVG 20010904//EN"
 "http://www.w3.org/TR/2001/REC-SVG-20010904/DTD/svg10.dtd">
<svg version="1.0" xmlns="http://www.w3.org/2000/svg"
 width="1000.000000pt" height="410.000000pt" viewBox="0 0 1000.000000 410.000000"
 preserveAspectRatio="xMidYMid meet">

<g transform="translate(0.000000,410.000000) scale(0.100000,-0.100000)"
fill="#000000" stroke="none">
<path d="M0 2050 l0 -2050 5000 0 5000 0 0 2050 0 2050 -5000 0 -5000 0 0
-2050z m1980 1166 c181 -30 316 -80 308 -114 -3 -9 -22 -91 -43 -182 -21 -91
-44 -171 -50 -178 -10 -12 -30 -9 -116 13 -87 23 -132 28 -275 32 -151 5 -180
3 -253 -16 -46 -11 -105 -33 -130 -48 -105 -61 -188 -184 -225 -333 -28 -114
-40 -298 -28 -439 29 -332 129 -500 335 -563 60 -18 88 -20 220 -16 84 2 158
7 165 11 9 6 12 63 12 227 l0 219 -152 3 -153 3 -3 199 c-2 153 1 201 10 208
7 4 178 8 380 8 320 0 369 -2 382 -16 14 -14 16 -80 16 -574 l0 -559 -37 -26
c-58 -39 -227 -101 -343 -126 -136 -29 -414 -32 -556 -6 -477 88 -711 384
-756 955 -14 178 -1 415 32 572 83 402 274 630 605 725 50 14 124 29 165 35
98 12 382 4 490 -14z m2988 -473 l2 -403 320 0 320 0 2 403 3 402 233 3 232 2
-2 -1087 -3 -1088 -230 0 -230 0 -3 468 -2 467 -320 0 -320 0 -2 -467 -3 -468
-230 0 -230 0 -3 1075 c-1 591 0 1081 3 1088 3 10 55 12 232 10 l228 -3 3
-402z m3390 30 l2 -371 48 23 c98 47 182 67 307 72 90 4 137 1 189 -11 293
-69 433 -344 412 -811 -20 -449 -135 -661 -396 -731 -95 -25 -289 -22 -395 5
-89 24 -193 69 -242 107 l-32 25 -6 -28 c-3 -15 -9 -39 -13 -53 l-7 -25 -168
-3 -167 -2 0 1090 0 1090 233 -2 232 -3 3 -372z m-5402 312 c18 -7 50 -29 72
-49 105 -95 110 -273 10 -375 -188 -192 -509 -5 -437 254 42 149 210 229 355
170z m994 -415 l0 -210 168 -2 167 -3 0 -190 0 -190 -165 -5 -165 -5 0 -327
c0 -316 1 -327 21 -355 40 -54 78 -68 204 -73 l115 -5 3 -161 c2 -121 -1 -164
-10 -172 -25 -20 -168 -42 -276 -42 -266 0 -422 92 -494 291 -22 62 -23 78
-28 454 l-5 390 -120 5 -120 5 0 155 0 155 120 31 120 31 3 216 2 217 230 0
230 0 0 -210z m-875 -955 l0 -740 -219 -3 c-153 -2 -223 1 -232 9 -19 16 -21
1448 -2 1467 9 9 70 12 233 10 l220 -3 0 -740z m3672 737 c9 -6 13 -137 15
-517 3 -492 4 -511 24 -549 29 -57 72 -76 167 -76 78 0 175 24 225 56 l22 14
0 530 c0 513 1 530 19 540 12 6 100 10 216 10 116 0 204 -4 216 -10 19 -10 19
-29 19 -740 0 -438 -4 -731 -9 -735 -17 -10 -286 -17 -299 -7 -8 5 -16 28 -19
51 -3 22 -9 41 -13 41 -4 0 -43 -18 -86 -39 -164 -81 -328 -111 -505 -93 -234
25 -361 113 -422 293 -21 62 -22 79 -25 639 -3 536 -2 575 14 587 20 14 419
19 441 5z"/>
<path d="M8491 2105 c-30 -9 -73 -24 -97 -35 l-44 -19 0 -339 0 -340 48 -20
c77 -33 122 -42 207 -42 193 1 239 78 240 400 0 138 -4 187 -17 231 -23 72
-66 131 -114 154 -51 25 -154 29 -223 10z"/>
</g>
</svg>
