<?xml version="1.0" standalone="no"?>
<!DOCTYPE svg PUBLIC "-//W3C//DTD SVG 20010904//EN"
 "http://www.w3.org/TR/2001/REC-SVG-20010904/DTD/svg10.dtd">
<svg version="1.0" xmlns="http://www.w3.org/2000/svg"
 width="2212.000000pt" height="540.000000pt" viewBox="0 0 2212.000000 540.000000"
 preserveAspectRatio="xMidYMid meet">

<g transform="translate(0.000000,540.000000) scale(0.100000,-0.100000)"
fill="#000000" stroke="none">
<path d="M0 2700 l0 -2700 11060 0 11060 0 0 2700 0 2700 -667 -1 c-596 0
-662 -2 -615 -15 101 -27 169 -74 225 -156 73 -107 67 100 65 -2528 l-3 -2365
-27 -57 c-37 -80 -107 -152 -187 -191 l-66 -32 -2390 0 -2390 0 -56 26 c-104
49 -182 140 -213 249 -15 50 -16 283 -14 2410 l3 2355 23 57 c27 67 105 157
166 193 23 13 66 31 96 39 49 13 -891 15 -8007 15 l-8063 1 0 -2700z m3259
1941 c77 -24 146 -68 204 -130 177 -189 152 -507 -52 -667 -139 -110 -326
-130 -486 -54 -279 133 -347 500 -133 726 61 64 115 99 196 125 77 24 193 24
271 0z m-2429 -1536 l0 -1505 765 0 765 0 0 -380 0 -380 -1175 0 -1175 0 0
1885 0 1885 410 0 410 0 0 -1505z m6802 379 l3 -1127 445 516 445 516 488 1
489 0 -109 -122 c-382 -429 -923 -1049 -923 -1058 0 -5 123 -175 273 -377 150
-202 377 -509 505 -681 l231 -312 -498 0 -498 0 -419 630 c-230 346 -422 630
-426 630 -5 0 -8 -283 -8 -630 l0 -630 -395 0 -395 0 0 1885 0 1885 395 0 395
0 2 -1126z m7356 -761 l2 -1883 -365 0 -365 0 0 170 c0 94 -3 170 -7 169 -5 0
-30 -27 -56 -59 -107 -131 -294 -250 -482 -306 -120 -35 -331 -44 -483 -20
-465 73 -813 367 -961 811 -105 318 -103 690 6 1020 106 322 312 580 577 721
166 88 318 124 525 124 218 -1 365 -32 531 -112 91 -44 117 -62 193 -138 l87
-87 0 738 0 739 398 -2 397 -3 3 -1882z m-3943 719 c212 -46 383 -135 530
-274 146 -139 239 -289 310 -499 55 -166 75 -309 82 -571 l6 -228 -923 0 -922
0 6 -37 c4 -21 25 -76 47 -122 71 -151 218 -273 379 -316 71 -19 237 -19 317
0 137 32 274 117 360 224 26 33 52 60 56 60 12 1 541 -388 546 -400 6 -18
-180 -191 -274 -255 -169 -115 -361 -195 -555 -231 -139 -25 -389 -23 -541 5
-514 95 -901 407 -1058 854 -74 211 -97 499 -57 718 65 360 258 657 556 855
188 125 391 199 650 235 106 14 382 4 485 -18z m-5308 -8 c309 -53 516 -229
612 -519 33 -99 55 -198 72 -326 8 -55 13 -371 16 -916 l5 -833 -401 0 -401 0
0 734 c0 810 -3 850 -61 976 -56 120 -139 181 -275 202 -95 15 -209 0 -294
-38 -72 -32 -151 -112 -185 -186 -67 -147 -74 -253 -75 -1055 l0 -633 -395 0
-395 0 0 1275 0 1275 380 0 380 0 2 -177 3 -178 46 65 c62 87 171 189 256 239
78 46 219 96 313 110 80 12 286 4 397 -15z m-2217 -1319 l0 -1275 -395 0 -395
0 0 1275 0 1275 395 0 395 0 0 -1275z m18374 -1408 c77 -35 140 -98 179 -176
29 -59 32 -74 32 -156 0 -78 -4 -98 -28 -151 -36 -77 -104 -145 -182 -181 -87
-41 -213 -41 -300 0 -78 36 -146 104 -182 181 -24 53 -28 73 -28 151 0 76 4
99 26 146 48 102 134 176 238 206 68 19 179 10 245 -20z"/>
<path d="M13528 2769 c-154 -16 -274 -74 -377 -185 -111 -118 -161 -260 -161
-459 0 -139 19 -229 69 -330 113 -228 364 -350 649 -316 278 34 461 192 527
456 24 93 24 285 1 375 -82 323 -348 496 -708 459z"/>
<path d="M10540 2889 c-66 -13 -181 -73 -238 -124 -89 -80 -171 -234 -172
-322 l0 -33 521 0 522 0 -5 69 c-13 183 -164 356 -353 406 -64 16 -201 18
-275 4z"/>
<path d="M21642 682 c-227 -81 -293 -363 -125 -534 66 -67 129 -92 228 -92
102 0 166 26 230 95 68 73 90 127 90 224 0 67 -4 89 -28 136 -32 67 -100 133
-165 161 -66 30 -163 33 -230 10z m209 -137 c72 -38 62 -158 -16 -186 -19 -7
-35 -15 -35 -19 0 -3 23 -39 50 -80 27 -41 50 -79 50 -83 0 -5 -12 -7 -27 -5
-21 2 -37 20 -77 85 -49 79 -52 82 -88 83 l-38 0 0 -86 0 -85 -27 3 -28 3 -3
193 -2 192 105 0 c76 0 114 -4 136 -15z"/>
<path d="M21670 455 l0 -65 63 0 c78 0 107 17 107 65 0 48 -29 65 -107 65
l-63 0 0 -65z"/>
<path d="M16849 4646 c-157 -45 -283 -174 -324 -331 -43 -166 7 -329 137 -450
248 -231 648 -122 748 204 67 215 -35 443 -243 546 -71 35 -85 38 -175 41 -60
2 -114 -2 -143 -10z"/>
<path d="M19257 3449 c-208 -24 -418 -141 -546 -305 -31 -39 -61 -80 -68 -90
-9 -15 -12 17 -12 159 l-1 177 -380 0 -380 0 0 -1275 0 -1275 395 0 394 0 4
743 c3 677 5 748 21 812 24 91 58 167 97 216 137 174 480 197 634 44 46 -47
88 -135 111 -235 15 -66 18 -161 21 -827 l4 -753 395 0 395 0 -3 863 c-4 846
-4 864 -27 987 -46 256 -114 403 -247 536 -66 68 -97 90 -175 128 -115 55
-228 83 -391 96 -137 11 -145 11 -241 -1z"/>
<path d="M16570 2115 l0 -1275 400 0 400 0 0 1275 0 1275 -400 0 -400 0 0
-1275z"/>
</g>
</svg>
